<?xml version="1.0" encoding="utf-8"?>
<!-- Generator: Adobe Illustrator 28.0.0, SVG Export Plug-In . SVG Version: 6.00 Build 0)  -->
<svg version="1.1" id="Layer_1" xmlns="http://www.w3.org/2000/svg" xmlns:xlink="http://www.w3.org/1999/xlink" x="0px" y="0px"
	 viewBox="0 0 81 27.2" style="enable-background:new 0 0 81 27.2;" xml:space="preserve">
<style type="text/css">
	.st0{fill:#4B6666;}
	.st1{fill:#FBFBFB;}
	.st2{fill:#24202C;}
	.st3{fill:#5E4D85;}
	.st4{fill:#545E17;}
	.st5{fill:#CECDD2;}
	.st6{fill:#B3AEB8;}
	.st7{fill:#E1FF3F;}
	.st8{fill:#583635;}
	.st9{fill:#738197;}
</style>
<g>
	<path class="st0" d="M5,13.1c1.1,1.6,2.5,3,3.7,4.6c0.2,0.2,0.4,0.5,0.5,0.7c0,0.4,0,0.7,0,1.1c-4.6,0-4.6,0-9.1,0
		c0-0.1,0-0.2,0-0.3c0.3-1.5,0.8-2.9,1.1-4.4c1.1-0.5,2.5-1.2,3.5-1.7C5,13,5,13.1,5,13.1z"/>
	<path class="st1" d="M14.2,5.2c0.2,0.3,1.7,2,1.7,2.1c0,0-0.1,0.1-0.1,0.1c-0.7-0.5-1.4-0.5-2.1-2C13.8,5.4,14,5.3,14.2,5.2z"/>
	<path class="st2" d="M13.4,9.7c0,0.1,0.3,0.4,0.4,0.5c-0.8,0.5-1.9,0.2-1.9-0.7c0-0.2,0.2-0.5,0.3-0.7C12.1,9.7,12.7,10,13.4,9.7z"
		/>
	<g>
		<path class="st3" d="M6.3,6c-0.3,0,0,1.2-0.1,1.8c0,0.1,0.1,0.2,0.1,0.3C6.3,8.8,7,9.3,6.7,10c-0.3,0.6-1.4,0.5-1.4,0.3
			c0,0,0.1-0.1,0.2-0.4c0.8,0.3,1.2-0.3,1-1.1c0.1,0.8-0.6,1-0.9,0.8C5.1,9.2,5.8,8.3,5.6,8.3C4.9,8.5,4.9,8.5,4.3,8.8
			c-0.2-0.1-0.9-1-1-1c-0.1,0-0.6,0.1-0.6-0.1C2.8,7.7,2.9,7.5,3,7.5c0.6-0.5,1.6-0.7,2.2-2C5.4,5.6,6.2,6,6.3,6z"/>
		<path class="st1" d="M5.4,9.8c0,0-0.2-0.1,0.1-0.3c0.3,0.2,1,0,0.9-0.8C6.6,9.5,6.2,10.1,5.4,9.8z"/>
	</g>
	<g>
		<path class="st2" d="M18.7,19.2c0,0.1,0.1,0.2,0.1,0.3c-4.6,0-4.6,0-9.2,0c0-0.4,0-0.7,0-1.1c1.4-1.8,2.8-3.6,4.3-5.4
			c1.8,0.9,1.8,0.9,3.6,1.7C17.8,16.2,18.3,17.7,18.7,19.2z"/>
		<path class="st4" d="M18.8,19.5c0.1,0.3,0.1,0.5,0.1,0.8c-1.8,1.1-1.8,1.1-3.6,2.2c-1.3-0.1-4.1,0.1-5.7,0c0-1,0-2,0-3
			C14.2,19.5,14.2,19.5,18.8,19.5z"/>
		<path class="st2" d="M15.3,22.5c0.5,0,1.7,0.3,2.3,0.4c-4,2.1-4,2.1-7.9,4.2c0-1.5,0-3.1,0-4.6C11.1,22.5,14,22.3,15.3,22.5z"/>
	</g>
	<path class="st0" d="M9.2,22.4c-2.9,0-2.9,0-5.8,0.1c0,0,0,0,0,0c-1.2,0.2-1.2,0.2-2.4,0.3c2.1,1,4.1,2.2,6.1,3.2
		c0.4,0.3,1.5,0.8,2,1.1C9.2,25.6,9.2,24,9.2,22.4z"/>
	<g>
		<path class="st5" d="M13.2,12.8c-0.6,0.7-2.6,3.2-2.9,3.8c-0.2-0.2,0.4-1.1,0-1c0.8-1,1.6-2,2.4-3.1
			C12.9,12.6,13.1,12.7,13.2,12.8z"/>
		<path class="st6" d="M10.4,16.6c0.3-0.6,2.3-3.1,2.9-3.8c0.1,0,0.4,0.1,0.4,0.2c-0.7,0.8-2.7,3.4-3.2,3.9
			C10.2,17.1,10.2,16.9,10.4,16.6z"/>
	</g>
	<g>
		<path class="st7" d="M9.2,19.5C9.2,19.5,9.2,19.5,9.2,19.5C9.2,19.5,9.2,19.5,9.2,19.5c-0.1,0.2-0.1,2.7-0.1,2.8c0,0,0.1,0,0.1,0
			c0,0,0,0.1,0,0.1c-2.9,0-2.9,0-5.8,0.1c-1.7-1.1-1.7-1.1-3.4-2.2c0-0.3,0.1-0.5,0.1-0.8C4.7,19.5,4.7,19.5,9.2,19.5z"/>
		<path class="st8" d="M9.2,19.6c0,0.9,0,1.9,0,2.8c0,0-0.1,0-0.1,0C9.1,22.2,9.1,19.7,9.2,19.6C9.2,19.5,9.2,19.5,9.2,19.6z"/>
	</g>
	<g>
		<path class="st2" d="M12.4,8.3c-0.2,0.6-0.8,1.3-1.3,1.7c0,0.4-0.1,1.6,0.1,1.8c0.5,0.3,1,0.5,1.5,0.8c-0.8,1-1.6,2.1-2.4,3.1
			c-0.3,0.3-0.6,0.7-0.9,1c-0.5-0.6-1.1-1.3-1.6-1.9c-0.2-0.3-1.5-2-1.6-2.1c0.1-0.3,1.1-0.6,1.5-0.9c-0.1-0.6,0.1-1.5-0.2-1.7
			c0,0,0-0.1,0.1,0c0.4,0.4,0.4,0.7,1.2,0.7c0.7,0.1,1.5-0.4,2.1-0.7c0.1,0,0.1,0,0.1,0c0,0,0-0.1,0-0.1c0.5-0.3,0.8-0.7,1.1-1.1
			c0.1-0.2,0.1-0.5,0.3-0.6C12.5,8.1,12.4,8.2,12.4,8.3z"/>
		<g>
			<g>
				<path class="st2" d="M15.8,7.4c0.1,0.1,0.2,0.2,0.3,0.3c-0.9-0.1-0.8,0.3-1.2,0.7c-0.1,0-0.2,0-0.2,0c-0.4,0.3,0.2,0.5-1.5-0.2
					c0,0,0.1,0.6,0.2,0.9c-0.2,0.5-1,0.4-1.1-0.1c0-0.2,0.2-0.6,0.1-0.8c0-0.1,0.1-0.1,0.1-0.2c-0.2,0.1-0.2,0.4-0.3,0.6
					c-0.3,0.5-0.6,0.8-1.1,1.1c0,0,0,0.1,0,0.1c0,0-0.1-0.1-0.1,0c-0.6,0.4-1.4,0.8-2.1,0.7C8,10.6,8.1,10.3,7.6,9.9
					c0,0-0.1,0-0.1,0C7.4,9.8,7.3,9.7,7.2,9.6C7,9.3,6.5,8.7,6.3,8.1c0-0.1-0.1-0.2-0.1-0.3C6.3,7.2,6,6.1,6.3,6
					c0.1,0,0.6,0.2,0.7,0.2C7.3,6.4,7.6,7,7.9,7C8,7,8.4,7,8.5,6.9c0.1-0.1,0.2-0.5,0.1-0.5c0.4,0,0.8,0,1.2,0
					c1.7,0,2.4-0.1,3.8-0.9C14.4,6.9,15.1,6.9,15.8,7.4z"/>
				<path class="st1" d="M9.1,8.8c0,0,0.5,0,0.5,0C10.2,9.1,8.7,9.1,9.1,8.8z"/>
			</g>
		</g>
	</g>
	<g>
		<path class="st7" d="M9.8,4.4c-1.9,0-1.9,0-3.9-0.1C5.9,3.9,7.4,1.5,7.6,1.5c0,0,0.1,0.1,0.1,0.1c0,0,0,0.1,0,0.1
			C7.9,1.8,8,2,8.1,2.1c0.3,0.3,1.4,1.4,1.6,1.7c0,0,0,0,0,0c0-0.2,0-0.2,0-0.3c0-1.7,0-1.7,0-3.4c0,0,0,0-0.1,0
			C8.1-0.2,5,2,5.2,4.1c-0.1,0.1-0.5,0-0.5,0.1c0,0,0,0.9,0,1c0,0,0.5,0.3,0.5,0.4C5.4,5.6,6.2,6,6.3,6c0.1,0,0.6,0.2,0.7,0.2
			c0.5,0.1,1.1,0.1,1.6,0.2c0.4,0,0.8,0,1.2,0C9.8,5.7,9.8,5.1,9.8,4.4z"/>
		<g>
			<path class="st4" d="M13.5,3c-0.6-1.4-2.3-2.6-3.8-2.9c0,1.7,0,1.7,0,3.4c0,0.2,0,0.2,0,0.3c0,0,0,0,0,0c0,0.1,0.1,0.1,0.2,0.2
				c0,0.1,0,0.2,0,0.3c0.6,0,2.4-0.1,2.6,0c0,0,0,0.1,0,0.1c0,0,0,0.1,0,0.1c-1.3,0-1.3,0-2.7,0c0,0,0,0,0,0c0,0.7,0,1.3,0,2
				c1.7,0,2.4-0.1,3.8-0.9c0.2-0.1,0.4-0.2,0.5-0.2c0-0.1,0-0.1,0.1-0.1c0-0.5,0-0.5,0-0.9C13.5,4.2,13.9,4,13.5,3z"/>
			<path class="st9" d="M12.5,4.3c0,0,0,0.1,0,0.1c-1.3,0-1.3,0-2.7,0c0-0.2,0-0.2,0-0.2C10.4,4.2,12.3,4.1,12.5,4.3
				C12.5,4.2,12.5,4.2,12.5,4.3z"/>
		</g>
		<g>
			<path class="st1" d="M7.7,1.6c0,0,0,0.1,0,0.1C7.7,1.7,7.6,1.6,7.7,1.6C7.1,2.3,6.7,3,6.3,3.7c0,0.1,0.1,0.1,0.1,0.1
				c0,0.1-0.1,0.2,0,0.3c1.6,0,1.6,0,3.2,0c0,0,0,0,0.1-0.1C9.5,3.9,9.5,3.9,9.4,3.8C9,3,8.5,2.7,8.1,2.1c0.3,0.3,1.4,1.4,1.6,1.7
				c0,0.1,0.1,0.1,0.2,0.2c0,0.1,0,0.2,0,0.3c0,0,0,0,0,0.2c0,0,0,0,0,0c-1.9,0-1.9,0-3.9-0.1C5.9,3.9,7.4,1.5,7.6,1.5
				C7.6,1.5,7.7,1.6,7.7,1.6z"/>
			<path class="st5" d="M7.7,1.7C7.9,1.8,8,2,8.1,2.1C8.5,2.7,9,3,9.4,3.8c-1.5,0-1.5,0-3.1,0c0,0,0,0-0.1-0.1
				C6.7,3,7.1,2.3,7.6,1.6C7.6,1.6,7.7,1.7,7.7,1.7z"/>
			<path class="st5" d="M9.4,3.8c0,0.1,0.1,0.2,0.2,0.3c0,0,0,0-0.1,0.1c-1.6,0-1.6,0-3.2,0c-0.1-0.1,0-0.2,0-0.3
				C7.9,3.8,7.9,3.8,9.4,3.8z"/>
		</g>
	</g>
</g>
<g>
	<polygon points="25.3,12.4 27.5,12.4 27.5,3 30.3,3 30.3,0.9 22.6,0.9 22.6,3 25.3,3 	"/>
	<path d="M34.3,9.6c0-0.5,0.1-0.9,0.2-1.3c0.1-0.4,0.3-0.7,0.6-0.9c0.2-0.2,0.5-0.3,0.9-0.3c0.4,0,0.6,0.1,0.8,0.3
		C36.9,7.5,37,7.8,37,8.1v4.3h2.2V7.2c0-0.6-0.2-1.1-0.7-1.5c-0.4-0.4-1-0.6-1.6-0.6c-0.6,0-1.2,0.1-1.6,0.4c-0.4,0.3-0.8,0.6-1,1V0
		h-2.1v12.3h2.2V9.6z"/>
	<path d="M46.2,10.2c-0.2,0.1-0.4,0.2-0.7,0.3c-0.2,0.1-0.5,0.1-0.7,0.1c-0.3,0-0.6-0.1-0.9-0.2c-0.2-0.1-0.3-0.2-0.4-0.4l5-1.6
		c-0.2-1.1-0.6-1.9-1.2-2.5c-0.6-0.6-1.4-0.9-2.4-0.9c-0.7,0-1.4,0.2-2,0.5C42.2,6,41.8,6.5,41.4,7c-0.4,0.6-0.5,1.2-0.5,1.9
		c0,0.7,0.2,1.4,0.5,1.9c0.3,0.6,0.7,1,1.3,1.3c0.6,0.3,1.3,0.5,2.1,0.5c0.4,0,0.8-0.1,1.2-0.2c0.4-0.1,0.8-0.3,1.2-0.5L46.2,10.2z
		 M43.2,7.8c0.1-0.3,0.3-0.5,0.6-0.6C44,7,44.3,6.9,44.6,6.9c0.4,0,0.7,0.1,1,0.3c0.2,0.2,0.3,0.4,0.4,0.7l-3,1c0,0,0-0.1,0-0.1
		C43,8.4,43.1,8,43.2,7.8z"/>
	<path d="M61.3,12.4V7.2c0-0.6-0.2-1.1-0.6-1.5c-0.4-0.4-0.9-0.6-1.6-0.6c-0.4,0-0.9,0.1-1.3,0.4c-0.4,0.2-0.7,0.6-1,1
		c-0.1-0.3-0.2-0.5-0.4-0.7c-0.2-0.2-0.4-0.4-0.7-0.5c-0.3-0.1-0.6-0.2-1-0.2c-0.6,0-1.1,0.1-1.5,0.4c-0.4,0.3-0.7,0.6-1,1L52,5.5
		h-2v6.8h2.2V9.5c0-0.4,0.1-0.8,0.2-1.2c0.1-0.4,0.3-0.7,0.5-0.9c0.2-0.2,0.5-0.4,0.9-0.4c0.3,0,0.5,0.1,0.6,0.3
		c0.1,0.2,0.2,0.4,0.2,0.7v4.2h2.2V9.6c0-0.4,0.1-0.8,0.2-1.2c0.1-0.4,0.3-0.7,0.5-0.9c0.2-0.2,0.5-0.4,0.9-0.4
		c0.3,0,0.5,0.1,0.6,0.3c0.1,0.2,0.1,0.4,0.1,0.7v4.2H61.3z"/>
	<path d="M67.6,10.6c-0.2,0.1-0.5,0.1-0.7,0.1c-0.3,0-0.6-0.1-0.9-0.2c-0.2-0.1-0.3-0.2-0.4-0.4l5-1.6c-0.2-1.1-0.6-1.9-1.2-2.5
		c-0.6-0.6-1.4-0.9-2.4-0.9c-0.7,0-1.4,0.2-2,0.5C64.3,6,63.9,6.5,63.5,7C63.2,7.6,63,8.2,63,8.9c0,0.7,0.2,1.4,0.5,1.9
		c0.3,0.6,0.7,1,1.3,1.3c0.6,0.3,1.3,0.5,2.1,0.5c0.4,0,0.8-0.1,1.2-0.2c0.4-0.1,0.8-0.3,1.2-0.5l-1-1.6
		C68.1,10.4,67.8,10.5,67.6,10.6z M65.3,7.8c0.1-0.3,0.3-0.5,0.6-0.6c0.2-0.2,0.5-0.2,0.9-0.2c0.4,0,0.7,0.1,1,0.3
		c0.2,0.2,0.3,0.4,0.4,0.7l-3,1c0,0,0-0.1,0-0.1C65.1,8.4,65.2,8,65.3,7.8z"/>
	<path d="M29.3,20.4c0.3-0.2,0.6-0.5,0.9-0.8c0.3-0.5,0.5-1.1,0.5-1.8c0-1-0.4-1.7-1.1-2.2c-0.7-0.5-1.7-0.7-2.9-0.7h-3.4v11.5h3.8
		c0.5,0,1-0.1,1.5-0.2c0.5-0.1,0.9-0.3,1.3-0.6c0.4-0.3,0.7-0.6,0.9-1c0.2-0.4,0.3-1,0.3-1.6c0-0.7-0.2-1.3-0.6-1.7
		C30.2,20.9,29.8,20.6,29.3,20.4z M25.6,17.1h1.2c0.4,0,0.8,0.1,1.1,0.3c0.3,0.2,0.4,0.5,0.4,0.9c0,0.3-0.1,0.7-0.3,0.9
		c-0.2,0.3-0.5,0.4-1,0.4h-1.4V17.1z M28.6,23.8c-0.2,0.2-0.4,0.3-0.6,0.4c-0.3,0.1-0.6,0.1-0.9,0.1h-1.5v-2.5h1.3
		c0.3,0,0.6,0,0.9,0.1c0.3,0.1,0.5,0.2,0.7,0.4c0.2,0.2,0.3,0.4,0.3,0.8C28.8,23.3,28.8,23.6,28.6,23.8z"/>
	<path d="M37.8,22.4c0,0.5-0.1,0.9-0.2,1.3c-0.1,0.4-0.3,0.7-0.5,0.9c-0.2,0.2-0.5,0.3-0.8,0.3c-0.3,0-0.6-0.1-0.7-0.3
		c-0.1-0.2-0.2-0.4-0.2-0.7v-4.3h-2.2v5.1c0,0.6,0.2,1.1,0.7,1.5c0.4,0.4,0.9,0.6,1.5,0.6c0.4,0,0.8-0.1,1.1-0.2
		c0.3-0.1,0.6-0.3,0.9-0.5c0.2-0.2,0.4-0.5,0.6-0.7l0.2,1.1h2v-6.8h-2.2V22.4z"/>
	<path d="M43.4,16.1c-0.3,0-0.6,0.1-0.8,0.3c-0.3,0.2-0.4,0.5-0.4,0.8c0,0.3,0.1,0.6,0.4,0.8c0.3,0.2,0.5,0.3,0.8,0.3
		c0.3,0,0.6-0.1,0.8-0.3c0.2-0.2,0.4-0.5,0.4-0.8c0-0.3-0.1-0.6-0.4-0.8C43.9,16.2,43.7,16.1,43.4,16.1z"/>
	<rect x="42.2" y="19.6" width="2.2" height="6.8"/>
	<rect x="46.6" y="14.1" width="2.2" height="12.3"/>
	<path d="M56.4,20.1c-0.3-0.3-0.6-0.5-1-0.6c-0.4-0.1-0.8-0.2-1.3-0.2c-0.7,0-1.3,0.1-1.8,0.4c-0.5,0.3-1,0.7-1.3,1.2
		c-0.3,0.5-0.5,1.2-0.5,2c0,0.8,0.1,1.4,0.4,2c0.3,0.6,0.7,1,1.2,1.3c0.5,0.3,1.1,0.4,1.7,0.4c0.6,0,1.1-0.1,1.5-0.3
		c0.4-0.2,0.7-0.4,1-0.6v0.7h2.2V14.1h-2.2V20.1z M55.9,24.3c-0.2,0.2-0.4,0.3-0.6,0.3c-0.2,0.1-0.5,0.1-0.8,0.1
		c-0.3,0-0.6-0.1-0.9-0.2c-0.3-0.2-0.5-0.4-0.7-0.7c-0.2-0.3-0.2-0.6-0.2-1c0-0.4,0.1-0.7,0.2-1c0.2-0.3,0.4-0.5,0.7-0.7
		c0.3-0.2,0.6-0.2,0.9-0.2c0.3,0,0.6,0,0.8,0.1c0.2,0.1,0.5,0.2,0.6,0.4c0.2,0.2,0.3,0.4,0.4,0.6v1.7C56.3,24,56.1,24.2,55.9,24.3z"
		/>
	<path d="M66.6,20.1c-0.6-0.6-1.4-0.9-2.4-0.9c-0.7,0-1.4,0.2-2,0.5c-0.6,0.3-1.1,0.8-1.4,1.3c-0.4,0.6-0.5,1.2-0.5,1.9
		c0,0.7,0.2,1.4,0.5,1.9c0.3,0.6,0.7,1,1.3,1.3c0.6,0.3,1.3,0.5,2.1,0.5c0.4,0,0.8-0.1,1.2-0.2c0.4-0.1,0.8-0.3,1.2-0.5l-1-1.6
		c-0.2,0.1-0.4,0.2-0.7,0.3c-0.2,0.1-0.5,0.1-0.7,0.1c-0.3,0-0.6-0.1-0.9-0.2c-0.2-0.1-0.3-0.2-0.4-0.4l5-1.6
		C67.7,21.5,67.3,20.7,66.6,20.1z M62.6,21.8c0.1-0.3,0.3-0.5,0.6-0.6c0.2-0.2,0.5-0.2,0.9-0.2c0.4,0,0.7,0.1,1,0.3
		c0.2,0.2,0.3,0.4,0.4,0.7l-3,1c0,0,0-0.1,0-0.1C62.4,22.4,62.5,22.1,62.6,21.8z"/>
	<path d="M72.4,20.2c-0.3,0.3-0.6,0.6-0.8,1l-0.2-1.6h-2v6.8h2.2v-2.7c0-0.4,0.1-0.8,0.3-1.2c0.2-0.4,0.5-0.7,0.8-0.9
		c0.4-0.2,0.8-0.3,1.3-0.2l0.1-2.2c-0.2,0-0.4,0.1-0.8,0.2C73.1,19.6,72.7,19.9,72.4,20.2z"/>
	<path d="M80.8,23.3c-0.1-0.2-0.3-0.5-0.6-0.6c-0.2-0.2-0.5-0.3-0.9-0.4c-0.2-0.1-0.5-0.2-0.7-0.2c-0.2-0.1-0.5-0.2-0.6-0.3
		c-0.2-0.1-0.2-0.3-0.2-0.5c0-0.1,0-0.2,0.1-0.3c0.1-0.1,0.2-0.2,0.3-0.2c0.1-0.1,0.3-0.1,0.5-0.1c0.2,0,0.4,0.1,0.7,0.2
		c0.2,0.1,0.5,0.2,0.7,0.4l0.8-1.3c-0.4-0.3-0.7-0.4-1.1-0.6c-0.4-0.1-0.9-0.2-1.5-0.2c-0.6,0-1.2,0.1-1.6,0.4
		c-0.4,0.2-0.7,0.5-0.9,0.9c-0.2,0.3-0.3,0.7-0.3,1c0,0.4,0.1,0.9,0.4,1.2c0.3,0.4,0.7,0.7,1.4,0.9c0.2,0.1,0.5,0.1,0.7,0.2
		c0.2,0.1,0.4,0.2,0.5,0.3c0.1,0.1,0.2,0.2,0.2,0.4c0,0.1,0,0.2-0.1,0.3c-0.1,0.1-0.2,0.1-0.3,0.2c-0.1,0-0.3,0.1-0.5,0.1
		c-0.2,0-0.5-0.1-0.8-0.2c-0.3-0.1-0.6-0.3-0.9-0.6l-0.9,1.2c0.3,0.4,0.7,0.6,1.2,0.8c0.5,0.2,1,0.3,1.6,0.3c0.7,0,1.2-0.1,1.6-0.3
		c0.4-0.2,0.8-0.5,1-0.9c0.2-0.4,0.3-0.8,0.3-1.2C81,23.8,80.9,23.5,80.8,23.3z"/>
</g>
</svg>
